<svg xmlns="http://www.w3.org/2000/svg" width="500" height="500" style="width:100%;height:100%;transform:translate3d(0,0,0);content-visibility:visible;fill:white;" viewBox="0 0 500 500">
  <defs>
    <clipPath id="a">
      <path d="M0 0h500v500H0z"/>
    </clipPath>
    <clipPath id="e">
      <path d="M0 0h500v500H0z"/>
    </clipPath>
    <clipPath id="d">
      <path d="M0 0h500v500H0z"/>
    </clipPath>
    <clipPath id="c">
      <path d="M0 0h500v500H0z"/>
    </clipPath>
    <clipPath id="b">
      <path d="M0 0h500v500H0z"/>
    </clipPath>
  </defs>
  <g clip-path="url(#a)">
    <g clip-path="url(#b)" style="display:none">
      <g class="primary design" style="display:none">
        <path class="primary" fill="white"/>
      </g>
      <g class="primary design" style="display:none">
        <path class="primary" fill="white"/>
      </g>
      <g class="primary design" style="display:none">
        <path class="primary" fill="white"/>
      </g>
      <g class="primary design" style="display:none">
        <path fill="none" class="primary"/>
      </g>
      <g class="primary design" style="display:none">
        <path fill="none" class="primary"/>
      </g>
    </g>
    <g clip-path="url(#c)" style="display:none">
      <g class="primary design" style="display:none">
        <path class="primary" fill="white"/>
      </g>
      <g class="primary design" style="display:none">
        <path class="primary" fill="white"/>
      </g>
      <g class="primary design" style="display:none">
        <path class="primary" fill="white"/>
      </g>
      <g class="primary design" style="display:none">
        <path fill="none" class="primary"/>
      </g>
      <g class="primary design" style="display:none">
        <path fill="none" class="primary"/>
      </g>
    </g>
    <g class="primary design" clip-path="url(#d)" style="display:block">
      <path fill="white" d="M162.614 416.669a37.521 37.521 0 0 1-18.476-4.861c-11.685-6.598-18.658-18.444-18.658-31.701V120.103c0-13.379 6.995-25.308 18.72-31.926 11.746-6.638 26.203-6.434 37.663.531l217.582 130.073c11.052 6.659 17.659 18.281 17.7 31.068.041 12.909-6.627 24.695-17.822 31.538L181.782 411.359c-5.852 3.534-12.5 5.31-19.168 5.31zm0-301.979c-1.366 0-2.467.49-3.018.817-1.285.715-2.794 2.104-2.794 4.596v260.004c0 2.472 1.712 3.799 2.732 4.391.938.511 3.405 1.613 6.138-.041l217.48-129.95c2.304-1.409 2.671-3.473 2.671-4.576 0-1.246-.448-3.003-2.508-4.249L165.734 115.589a5.91 5.91 0 0 0-3.12-.899z"/>
    </g>
    <g clip-path="url(#e)" style="display:none">
      <g class="primary design" style="display:none">
        <path class="primary" fill="white"/>
      </g>
      <g class="primary design" style="display:none">
        <path fill="none" class="primary"/>
      </g>
    </g>
  </g>
</svg>
